<svg width="16" height="16" viewBox="0 0 16 16" fill="none" xmlns="http://www.w3.org/2000/svg">
<path fill-rule="evenodd" clip-rule="evenodd" d="M0 11.9242C0 11.3642 0.446971 10.9102 0.998338 10.9102C1.5497 10.9102 1.99668 11.3642 1.99668 11.9242V13.972L14.0033 13.972V11.9242C14.0033 11.3642 14.4503 10.9102 15.0017 10.9102C15.553 10.9102 16 11.3642 16 11.9242V13.972C16 15.092 15.1061 16 14.0033 16H1.99668C0.893943 16 0 15.092 0 13.972L0 11.9242ZM4.67533 6.64833L6.96442 8.97334L6.96442 1.01401C6.96442 0.453987 7.41139 0 7.96275 0C8.51412 0 8.96109 0.453987 8.96109 1.01401L8.96109 8.97334L11.2502 6.64833C11.64 6.25233 12.2722 6.25233 12.662 6.64833C13.0519 7.04432 13.0519 7.68636 12.662 8.08235L9.37461 11.4214C8.59486 12.2134 7.33064 12.2134 6.55089 11.4214L3.26347 8.08235C2.87359 7.68636 2.87359 7.04432 3.26347 6.64833C3.65335 6.25233 4.28546 6.25233 4.67533 6.64833Z" fill="#414141"/>
</svg>
