<svg width="20" height="21" viewBox="0 0 20 21" fill="none" xmlns="http://www.w3.org/2000/svg">
<path fill-rule="evenodd" clip-rule="evenodd" d="M14.9457 9.57609C14.9457 12.8178 12.3178 15.4457 9.07609 15.4457C5.83442 15.4457 3.20652 12.8178 3.20652 9.57609C3.20652 6.33442 5.83442 3.70652 9.07609 3.70652C12.3178 3.70652 14.9457 6.33442 14.9457 9.57609ZM13.8751 15.7586C12.5499 16.7887 10.8846 17.4022 9.07609 17.4022C4.75386 17.4022 1.25 13.8983 1.25 9.57609C1.25 5.25386 4.75386 1.75 9.07609 1.75C13.3983 1.75 16.9022 5.25386 16.9022 9.57609C16.9022 11.3846 16.2887 13.0499 15.2586 14.3751L18.4635 17.58C18.8455 17.962 18.8455 18.5814 18.4635 18.9635C18.0814 19.3455 17.462 19.3455 17.08 18.9635L13.8751 15.7586Z" fill="#333333"/>
</svg>
