<svg width="10" height="12" viewBox="0 0 10 12" fill="none" xmlns="http://www.w3.org/2000/svg">
<path d="M0.859375 12V0.6875H5.53125C8.0625 0.6875 9.375 1.84375 9.375 3.5625C9.375 4.85938 8.5 5.75 7.26562 6V6.10938C8.625 6.17188 9.8125 7.20312 9.8125 8.84375C9.8125 10.6719 8.39062 12 5.89062 12H0.859375ZM5.26562 9.84375C6.48438 9.84375 7.03125 9.35938 7.03125 8.54688C7.03125 7.65625 6.375 7.09375 5.3125 7.09375H3.51562V9.84375H5.26562ZM5.09375 5.35938C6 5.35938 6.65625 4.875 6.65625 4.0625C6.65625 3.29688 6.07812 2.8125 5.125 2.8125H3.51562V5.35938H5.09375Z" fill="black"/>
</svg>
