<svg width="16" height="16" viewBox="0 0 16 16" fill="none" xmlns="http://www.w3.org/2000/svg">
<path fill-rule="evenodd" clip-rule="evenodd" d="M8 2.52986C6.96641 2.52986 5.96112 2.97706 5.20955 3.79668C4.45604 4.61842 4.02308 5.74544 4.02308 6.93245C4.02308 7.32437 4.14974 7.82725 4.40497 8.42058C4.65655 9.0054 5.012 9.63024 5.41897 10.2523C6.23301 11.4966 7.21387 12.6706 7.86331 13.4048C7.90543 13.4524 7.95446 13.4701 8 13.4701C8.04554 13.4701 8.09457 13.4524 8.13669 13.4048C8.78613 12.6706 9.76699 11.4966 10.581 10.2523C10.988 9.63024 11.3435 9.0054 11.595 8.42058C11.8503 7.82725 11.9769 7.32437 11.9769 6.93245C11.9769 5.74544 11.544 4.61842 10.7905 3.79668C10.0389 2.97706 9.03359 2.52986 8 2.52986ZM8 5.07962C6.8317 5.07962 5.88461 6.03093 5.88461 7.20443C5.88461 8.37793 6.8317 9.32923 8 9.32923C9.16829 9.32923 10.1154 8.37793 10.1154 7.20443C10.1154 6.03093 9.16829 5.07962 8 5.07962Z" fill="#111111"/>
<path fill-rule="evenodd" clip-rule="evenodd" d="M8 2.52986C6.96641 2.52986 5.96112 2.97706 5.20955 3.79668C4.45604 4.61842 4.02308 5.74544 4.02308 6.93245C4.02308 7.32437 4.14974 7.82725 4.40497 8.42058C4.65655 9.0054 5.012 9.63024 5.41897 10.2523C6.23301 11.4966 7.21387 12.6706 7.86331 13.4048C7.90543 13.4524 7.95446 13.4701 8 13.4701C8.04554 13.4701 8.09457 13.4524 8.13669 13.4048C8.78613 12.6706 9.76699 11.4966 10.581 10.2523C10.988 9.63024 11.3435 9.0054 11.595 8.42058C11.8503 7.82725 11.9769 7.32437 11.9769 6.93245C11.9769 5.74544 11.544 4.61842 10.7905 3.79668C10.0389 2.97706 9.03359 2.52986 8 2.52986ZM4.08926 2.76024C5.11496 1.64166 6.52016 1 8 1C9.47984 1 10.885 1.64166 11.9107 2.76024C12.9345 3.8767 13.5 5.37844 13.5 6.93245C13.5 7.61999 13.2877 8.34276 12.9932 9.02739C12.695 9.72052 12.2899 10.4259 11.8539 11.0925C10.9818 12.4254 9.94646 13.6622 9.27527 14.4209C8.5923 15.193 7.4077 15.193 6.72473 14.4209C6.05354 13.6622 5.01817 12.4254 4.14612 11.0925C3.71005 10.4259 3.305 9.72052 3.00683 9.02739C2.71232 8.34276 2.5 7.61999 2.5 6.93245C2.5 5.37844 3.06549 3.8767 4.08926 2.76024Z" fill="#111111"/>
</svg>
