<svg width="20" height="20" viewBox="0 0 20 20" fill="none" xmlns="http://www.w3.org/2000/svg">
<path fill-rule="evenodd" clip-rule="evenodd" d="M18.7499 3.25C18.7499 3.66422 18.4142 4 17.9999 4L2 4C1.58579 4 1.25 3.66421 1.25 3.25C1.25 2.83579 1.58579 2.5 2 2.5L17.9999 2.5C18.4142 2.5 18.7499 2.83579 18.7499 3.25ZM18.7499 9.81109C18.7499 10.2253 18.4142 10.5611 17.9999 10.5611L2 10.5611C1.58579 10.5611 1.25 10.2253 1.25 9.81109C1.25 9.39687 1.58579 9.06109 2 9.06109L17.9999 9.06109C18.4142 9.06109 18.7499 9.39688 18.7499 9.81109ZM17.9999 17.1223C18.4142 17.1223 18.7499 16.7865 18.7499 16.3723C18.7499 15.9581 18.4142 15.6223 17.9999 15.6223L2 15.6223C1.58579 15.6223 1.25 15.9581 1.25 16.3723C1.25 16.7865 1.58579 17.1223 2 17.1223L17.9999 17.1223Z" fill="#E7E7E7"/>
</svg>
