<svg width="17" height="17" viewBox="0 0 17 17" fill="none" xmlns="http://www.w3.org/2000/svg">
<path fill-rule="evenodd" clip-rule="evenodd" d="M13.3333 7.5C13.3333 10.7217 10.7217 13.3333 7.5 13.3333C4.27834 13.3333 1.66667 10.7217 1.66667 7.5C1.66667 4.27834 4.27834 1.66667 7.5 1.66667C10.7217 1.66667 13.3333 4.27834 13.3333 7.5ZM12.1814 13.3599C10.8983 14.3863 9.27085 15 7.5 15C3.35786 15 0 11.6421 0 7.5C0 3.35786 3.35786 0 7.5 0C11.6421 0 15 3.35786 15 7.5C15 9.27085 14.3863 10.8983 13.3599 12.1814L16.4226 15.2441C16.748 15.5695 16.748 16.0972 16.4226 16.4226C16.0972 16.748 15.5695 16.748 15.2441 16.4226L12.1814 13.3599Z" fill="white"/>
</svg>
