<svg width="24" height="24" viewBox="0 0 24 24" fill="none" xmlns="http://www.w3.org/2000/svg">
<path fill-rule="evenodd" clip-rule="evenodd" d="M10.8889 2C8.22659 2 5.97692 3.76667 5.24827 6.19163L5.22463 6.20268C5.02526 6.29662 4.81661 6.41908 4.61807 6.54952C4.22329 6.80888 3.79233 7.15018 3.45883 7.48906C2.52296 8.44002 2 9.72646 2 11.0645C2 12.4026 2.52296 13.689 3.45883 14.64C3.62528 14.8091 4.02781 15.1207 4.4209 15.3767C4.628 15.5116 4.86591 15.6533 5.10307 15.765C5.30599 15.8605 5.64103 16 6 16H7V15V14.1111V11.0645V7.88889C7 5.74112 8.74111 4 10.8889 4H12C14.7614 4 17 6.23858 17 9V11.0645V14.1111C17 16.2589 15.2589 18 13.1111 18H12.8293C12.4175 16.8348 11.3062 16 10 16C8.34315 16 7 17.3431 7 19C7 20.6569 8.34315 22 10 22C11.3062 22 12.4175 21.1652 12.8293 20H13.1111C15.7645 20 18.008 18.2451 18.7444 15.8327C18.8009 15.8093 18.8521 15.7861 18.8969 15.765C19.1341 15.6533 19.372 15.5116 19.5791 15.3767C19.9722 15.1207 20.3747 14.8091 20.5412 14.64C21.477 13.689 22 12.4026 22 11.0645C22 9.72646 21.477 8.44002 20.5412 7.48906C20.2077 7.15018 19.7767 6.80888 19.3819 6.54952C19.1834 6.41908 18.9747 6.29662 18.7754 6.20268C18.6772 6.15643 18.5257 6.08924 18.3476 6.04509C17.2335 3.65586 14.8101 2 12 2H10.8889ZM19 13.3325C19.0617 13.2835 19.0975 13.2526 19.1106 13.2413C19.1156 13.237 19.1173 13.2356 19.1157 13.2372C19.6801 12.6636 20 11.8824 20 11.0645C20 10.2467 19.6801 9.46544 19.1157 8.89191C19.0797 8.8553 19.0409 8.81779 19 8.77978V9V11.0645V13.3325ZM4.88431 8.89191C4.92034 8.8553 4.95908 8.81779 5 8.77978V11.0645V13.3325C4.9383 13.2835 4.90247 13.2526 4.88942 13.2413C4.88438 13.237 4.88274 13.2356 4.88431 13.2372C4.31989 12.6636 4 11.8824 4 11.0645C4 10.2467 4.31989 9.46544 4.88431 8.89191ZM9 19C9 18.4477 9.44772 18 10 18C10.5523 18 11 18.4477 11 19C11 19.5523 10.5523 20 10 20C9.44772 20 9 19.5523 9 19Z" fill="#767676"/>
</svg>
