<svg width="24" height="24" viewBox="0 0 24 24" fill="none" xmlns="http://www.w3.org/2000/svg">
<path fill-rule="evenodd" clip-rule="evenodd" d="M4 12C4 7.58172 7.58172 4 12 4C16.4183 4 20 7.58172 20 12C20 16.4183 16.4183 20 12 20C7.58172 20 4 16.4183 4 12ZM12 2C6.47715 2 2 6.47715 2 12C2 17.5228 6.47715 22 12 22C17.5228 22 22 17.5228 22 12C22 6.47715 17.5228 2 12 2ZM8.5 11C9.32843 11 10 10.3284 10 9.5C10 8.67157 9.32843 8 8.5 8C7.67157 8 7 8.67157 7 9.5C7 10.3284 7.67157 11 8.5 11ZM17 9.5C17 10.3284 16.3284 11 15.5 11C14.6716 11 14 10.3284 14 9.5C14 8.67157 14.6716 8 15.5 8C16.3284 8 17 8.67157 17 9.5ZM7.68377 13.0513C8.20608 12.8772 8.77051 13.1581 8.94704 13.6789L8.95084 13.6894C8.95531 13.7016 8.96355 13.7235 8.97577 13.7537C9.0003 13.8143 9.04038 13.9072 9.09755 14.0215C9.21302 14.2525 9.39186 14.5582 9.64322 14.8598C10.1398 15.4557 10.8811 16 12 16C13.1189 16 13.8602 15.4557 14.3568 14.8598C14.6081 14.5582 14.787 14.2525 14.9024 14.0215C14.9596 13.9072 14.9997 13.8143 15.0242 13.7537C15.0364 13.7235 15.0447 13.7016 15.0492 13.6894L15.053 13.6789C15.2295 13.1581 15.7939 12.8772 16.3162 13.0513C16.8402 13.226 17.1233 13.7923 16.9487 14.3162L16 14C16.9487 14.3162 16.9485 14.3167 16.9484 14.3171L16.9481 14.318L16.9474 14.3201L16.9457 14.3252L16.9411 14.3385C16.9374 14.3488 16.9327 14.3621 16.9269 14.3779C16.9153 14.4097 16.8991 14.4523 16.8781 14.5041C16.8362 14.6076 16.7748 14.7491 16.6913 14.916C16.5255 15.2475 16.2669 15.6918 15.8932 16.1402C15.1398 17.0443 13.8811 18 12 18C10.1189 18 8.86023 17.0443 8.10678 16.1402C7.73314 15.6918 7.47448 15.2475 7.3087 14.916C7.22525 14.7491 7.16377 14.6076 7.12188 14.5041C7.1009 14.4523 7.08473 14.4097 7.07309 14.3779C7.06726 14.3621 7.06256 14.3488 7.05894 14.3385L7.05433 14.3252L7.05263 14.3201L7.05192 14.318L7.05161 14.3171C7.05146 14.3167 7.05132 14.3162 8 14L7.05132 14.3162C6.87667 13.7923 7.15983 13.226 7.68377 13.0513Z" fill="#767676"/>
</svg>
