<svg width="24" height="24" viewBox="0 0 24 24" fill="none" xmlns="http://www.w3.org/2000/svg">
<path fill-rule="evenodd" clip-rule="evenodd" d="M12.5548 2.16795C12.2189 1.94402 11.7813 1.94402 11.4454 2.16795L2.44538 8.16795C2.07872 8.41239 1.91529 8.86803 2.04299 9.28978C2.17068 9.71154 2.55941 10 3.00008 10H4.00008V15V16.6154V18.2308L4.00008 21C4.00008 21.2652 4.10543 21.5196 4.29297 21.7071C4.48051 21.8946 4.73486 22 5.00008 22H19.0001C19.2653 22 19.5196 21.8946 19.7072 21.7071C19.8947 21.5196 20.0001 21.2652 20.0001 21L20.0001 18.5244V15V10H21.0001C21.4407 10 21.8295 9.71154 21.9572 9.28978C22.0849 8.86803 21.9214 8.41239 21.5548 8.16795L12.5548 2.16795ZM18.0001 10H6.00008V15V16.6154V18.2308L6.00008 20H18.0001L18.0001 18.5244V15V10ZM12.0001 4.20185L17.6973 8H6.30285L12.0001 4.20185ZM10.0001 12C10.5524 12 11.0001 12.4477 11.0001 13V17C11.0001 17.5523 10.5524 18 10.0001 18C9.44779 18 9.00008 17.5523 9.00008 17V13C9.00008 12.4477 9.44779 12 10.0001 12ZM15.0001 13C15.0001 12.4477 14.5524 12 14.0001 12C13.4478 12 13.0001 12.4477 13.0001 13V17C13.0001 17.5523 13.4478 18 14.0001 18C14.5524 18 15.0001 17.5523 15.0001 17V13Z" fill="#767676"/>
</svg>
