<svg width="49" height="48" viewBox="0 0 49 48" fill="none" xmlns="http://www.w3.org/2000/svg">
<g clip-path="url(#clip0_0_8052)">
<path d="M24.6198 47.4294C37.5018 47.4294 47.9447 36.9401 47.9447 24.0008C47.9447 11.0616 37.5018 0.572266 24.6198 0.572266C11.7378 0.572266 1.29492 11.0616 1.29492 24.0008C1.29492 36.9401 11.7378 47.4294 24.6198 47.4294Z" fill="white"/>
<path d="M24.6194 1.14286C37.1693 1.14286 47.3754 11.3943 47.3754 24C47.3754 36.6057 37.1693 46.8571 24.6194 46.8571C12.0695 46.8571 1.86339 36.6057 1.86339 24C1.86339 11.3943 12.0695 1.14286 24.6194 1.14286ZM24.6194 0C11.4778 0 0.725586 10.8 0.725586 24C0.725586 37.2 11.4778 48 24.6194 48C37.761 48 48.5132 37.2 48.5132 24C48.5132 10.8 37.761 0 24.6194 0Z" fill="#E7E7E7"/>
<path d="M27.726 24.6173L21.2633 15.3145H15.9043V32.6859H21.5137V23.383L27.9764 32.6859H33.3354V15.3145H27.726V24.6173Z" fill="#03C75A"/>
</g>
<defs>
<clipPath id="clip0_0_8052">
<rect width="47.7876" height="48" fill="white" transform="translate(0.725586)"/>
</clipPath>
</defs>
</svg>
